<svg width="640" height="408" viewBox="0 0 640 408" fill="none" xmlns="http://www.w3.org/2000/svg">
<g clip-path="url(#clip0_40_2621)">
<g filter="url(#filter0_d_40_2621)">
<path d="M0 50C0 22.3858 22.3858 0 50 0H590C617.614 0 640 22.3858 640 50V208H0V50Z" fill="#F4F7FB" shape-rendering="crispEdges"/>
<path d="M51.2883 111H60.3996V108.568H54.2375V96.9082H51.2883V111ZM63.7379 99.1836C64.5973 99.1836 65.2613 98.5098 65.2613 97.6992C65.2613 96.8887 64.5973 96.2148 63.7379 96.2148C62.8785 96.2148 62.2145 96.8887 62.2145 97.6992C62.2145 98.5098 62.8785 99.1836 63.7379 99.1836ZM62.3121 111H65.1637V100.531H62.3121V111ZM72.3203 114.633C75.4648 114.633 77.4277 113.041 77.4277 110.707V100.531H74.5762V102.318H74.5176C73.9512 101.098 72.8086 100.316 71.334 100.316C68.6875 100.316 67.0469 102.299 67.0469 105.639V105.648C67.0469 108.9 68.668 110.854 71.2852 110.854C72.7988 110.854 73.9707 110.16 74.5176 109.066H74.5762V110.668C74.5762 111.84 73.7949 112.602 72.3203 112.602C71.1289 112.602 70.3672 112.152 70.1426 111.635L70.1133 111.566H67.3398L67.3496 111.654C67.623 113.334 69.4395 114.633 72.3203 114.633ZM72.2715 108.764C70.8457 108.764 69.9473 107.602 69.9473 105.717V105.707C69.9473 103.832 70.8555 102.68 72.2715 102.68C73.6582 102.68 74.5859 103.842 74.5859 105.707V105.717C74.5859 107.592 73.668 108.764 72.2715 108.764ZM79.7211 111H82.5727V105.004C82.5727 103.637 83.3832 102.68 84.643 102.68C85.9418 102.68 86.6645 103.549 86.6645 105.014V111H89.516V104.428C89.516 101.898 88.1098 100.316 85.8441 100.316C84.2719 100.316 83.1684 101.039 82.6312 102.338H82.5727V96.9082H79.7211V111ZM95.8621 111.215C96.4578 111.215 96.9168 111.156 97.2391 111.107V109.018C97.0633 109.037 96.8777 109.066 96.6238 109.066C95.7645 109.066 95.325 108.734 95.325 107.758V102.68H97.2391V100.531H95.325V97.9727H92.4441V100.531H90.9891V102.68H92.4441V108.07C92.4441 110.316 93.5379 111.215 95.8621 111.215Z" fill="black"/>
<circle cx="210" cy="76" r="22" fill="black"/>
<path d="M186.6 117H188.517V114.112H190.282C192.211 114.112 193.5 112.868 193.5 110.982V110.97C193.5 109.084 192.211 107.84 190.282 107.84H186.6V117ZM189.812 109.357C190.91 109.357 191.557 109.935 191.557 110.976V110.989C191.557 112.03 190.91 112.614 189.812 112.614H188.517V109.357H189.812ZM194.827 117H196.681V113.191C196.681 112.201 197.214 111.655 198.128 111.655C198.395 111.655 198.649 111.693 198.801 111.757V110.125C198.661 110.087 198.471 110.056 198.268 110.056C197.474 110.056 196.922 110.544 196.719 111.382H196.681V110.195H194.827V117ZM200.878 109.319C201.436 109.319 201.868 108.881 201.868 108.354C201.868 107.828 201.436 107.39 200.878 107.39C200.319 107.39 199.887 107.828 199.887 108.354C199.887 108.881 200.319 109.319 200.878 109.319ZM199.951 117H201.804V110.195H199.951V117ZM203.398 117H205.252V112.893C205.252 112.125 205.728 111.592 206.433 111.592C207.118 111.592 207.531 112.023 207.531 112.753V117H209.314V112.861C209.314 112.106 209.778 111.592 210.482 111.592C211.2 111.592 211.593 112.023 211.593 112.811V117H213.447V112.347C213.447 110.976 212.552 110.056 211.219 110.056C210.222 110.056 209.41 110.602 209.105 111.458H209.067C208.838 110.563 208.146 110.056 207.194 110.056C206.28 110.056 205.569 110.563 205.29 111.338H205.252V110.195H203.398V117ZM216.996 117.108C217.891 117.108 218.615 116.683 219.002 115.984H219.04V117H220.893V112.334C220.893 110.963 219.757 110.056 217.999 110.056C216.203 110.056 215.123 110.957 215.022 112.214L215.016 112.29H216.71L216.723 112.233C216.812 111.795 217.231 111.471 217.923 111.471C218.646 111.471 219.04 111.846 219.04 112.449V112.868L217.358 112.969C215.669 113.077 214.711 113.801 214.711 115.039V115.051C214.711 116.251 215.631 117.108 216.996 117.108ZM216.545 114.956V114.943C216.545 114.461 216.92 114.156 217.637 114.112L219.04 114.023V114.512C219.04 115.223 218.431 115.756 217.599 115.756C216.958 115.756 216.545 115.458 216.545 114.956ZM222.443 117H224.297V113.191C224.297 112.201 224.83 111.655 225.744 111.655C226.011 111.655 226.264 111.693 226.417 111.757V110.125C226.277 110.087 226.087 110.056 225.884 110.056C225.09 110.056 224.538 110.544 224.335 111.382H224.297V110.195H222.443V117ZM228.823 119.241C230.334 119.241 231.248 118.727 231.781 117.121L234.117 110.195H232.162L230.721 115.515H230.671L229.236 110.195H227.198L229.604 117L229.522 117.222C229.357 117.686 229.052 117.844 228.5 117.844C228.227 117.844 228.011 117.806 227.878 117.781V119.158C228.093 119.196 228.462 119.241 228.823 119.241Z" fill="black"/>
<path d="M189.612 145.183C192.293 145.183 193.919 143.081 193.919 139.719V139.705C193.919 136.343 192.293 134.248 189.612 134.248C186.932 134.248 185.306 136.343 185.306 139.705V139.719C185.306 143.081 186.932 145.183 189.612 145.183ZM189.612 143.411C188.294 143.411 187.54 142.041 187.54 139.719V139.705C187.54 137.383 188.294 136.021 189.612 136.021C190.931 136.021 191.685 137.383 191.685 139.705V139.719C191.685 142.041 190.931 143.411 189.612 143.411ZM199.806 145.183C202.487 145.183 204.113 143.081 204.113 139.719V139.705C204.113 136.343 202.487 134.248 199.806 134.248C197.126 134.248 195.5 136.343 195.5 139.705V139.719C195.5 143.081 197.126 145.183 199.806 145.183ZM199.806 143.411C198.488 143.411 197.733 142.041 197.733 139.719V139.705C197.733 137.383 198.488 136.021 199.806 136.021C201.125 136.021 201.879 137.383 201.879 139.705V139.719C201.879 142.041 201.125 143.411 199.806 143.411ZM210 145.183C212.681 145.183 214.307 143.081 214.307 139.719V139.705C214.307 136.343 212.681 134.248 210 134.248C207.319 134.248 205.693 136.343 205.693 139.705V139.719C205.693 143.081 207.319 145.183 210 145.183ZM210 143.411C208.682 143.411 207.927 142.041 207.927 139.719V139.705C207.927 137.383 208.682 136.021 210 136.021C211.318 136.021 212.073 137.383 212.073 139.705V139.719C212.073 142.041 211.318 143.411 210 143.411ZM220.194 145.183C222.874 145.183 224.5 143.081 224.5 139.719V139.705C224.5 136.343 222.874 134.248 220.194 134.248C217.513 134.248 215.887 136.343 215.887 139.705V139.719C215.887 143.081 217.513 145.183 220.194 145.183ZM220.194 143.411C218.875 143.411 218.121 142.041 218.121 139.719V139.705C218.121 137.383 218.875 136.021 220.194 136.021C221.512 136.021 222.267 137.383 222.267 139.705V139.719C222.267 142.041 221.512 143.411 220.194 143.411ZM230.388 145.183C233.068 145.183 234.694 143.081 234.694 139.719V139.705C234.694 136.343 233.068 134.248 230.388 134.248C227.707 134.248 226.081 136.343 226.081 139.705V139.719C226.081 143.081 227.707 145.183 230.388 145.183ZM230.388 143.411C229.069 143.411 228.315 142.041 228.315 139.719V139.705C228.315 137.383 229.069 136.021 230.388 136.021C231.706 136.021 232.46 137.383 232.46 139.705V139.719C232.46 142.041 231.706 143.411 230.388 143.411Z" fill="black"/>
<circle cx="320" cy="76" r="22" fill="#3C3C43" fill-opacity="0.6"/>
<path d="M290.556 117.159C292.867 117.159 294.25 116.042 294.25 114.283V114.277C294.25 112.836 293.387 112.055 291.47 111.674L290.499 111.478C289.445 111.268 288.975 110.932 288.975 110.354V110.348C288.975 109.694 289.566 109.243 290.55 109.237C291.496 109.237 292.156 109.675 292.251 110.392L292.257 110.468H294.066L294.06 110.348C293.971 108.742 292.67 107.682 290.55 107.682C288.518 107.682 287.058 108.786 287.058 110.462V110.468C287.058 111.846 287.973 112.709 289.782 113.071L290.746 113.261C291.883 113.496 292.333 113.807 292.333 114.429V114.436C292.333 115.134 291.667 115.597 290.607 115.597C289.559 115.597 288.804 115.153 288.683 114.442L288.671 114.372H286.862L286.868 114.474C286.976 116.162 288.379 117.159 290.556 117.159ZM298.714 117.14C300.656 117.14 301.596 115.991 301.805 114.988L301.824 114.918H300.123L300.11 114.956C299.977 115.337 299.513 115.756 298.752 115.756C297.806 115.756 297.216 115.121 297.197 114.036H301.881V113.464C301.881 111.408 300.631 110.056 298.637 110.056C296.644 110.056 295.368 111.439 295.368 113.604V113.61C295.368 115.788 296.632 117.14 298.714 117.14ZM298.669 111.439C299.437 111.439 299.99 111.928 300.104 112.868H297.216C297.336 111.947 297.908 111.439 298.669 111.439ZM306.3 117.14C308.115 117.14 309.29 116.01 309.379 114.524V114.486H307.652L307.646 114.543C307.519 115.229 307.055 115.686 306.313 115.686C305.399 115.686 304.827 114.931 304.827 113.598V113.591C304.827 112.29 305.399 111.509 306.306 111.509C307.074 111.509 307.525 112.004 307.639 112.652L307.652 112.709H309.372V112.665C309.302 111.192 308.128 110.056 306.281 110.056C304.243 110.056 302.942 111.408 302.942 113.585V113.591C302.942 115.788 304.224 117.14 306.3 117.14ZM313.747 117.14C315.803 117.14 317.117 115.819 317.117 113.598V113.585C317.117 111.382 315.778 110.056 313.74 110.056C311.709 110.056 310.376 111.395 310.376 113.585V113.598C310.376 115.813 311.677 117.14 313.747 117.14ZM313.753 115.686C312.839 115.686 312.261 114.931 312.261 113.598V113.585C312.261 112.271 312.845 111.509 313.74 111.509C314.642 111.509 315.232 112.271 315.232 113.585V113.598C315.232 114.924 314.654 115.686 313.753 115.686ZM318.426 117H320.279V113.09C320.279 112.201 320.806 111.592 321.638 111.592C322.469 111.592 322.888 112.1 322.888 112.988V117H324.742V112.607C324.742 111.014 323.891 110.056 322.393 110.056C321.365 110.056 320.667 110.532 320.317 111.312H320.279V110.195H318.426V117ZM328.786 117.14C329.77 117.14 330.519 116.645 330.881 115.838H330.919V117H332.772V107.84H330.919V111.376H330.881C330.513 110.551 329.751 110.056 328.786 110.056C327.072 110.056 326.018 111.376 326.018 113.591V113.598C326.018 115.807 327.072 117.14 328.786 117.14ZM329.408 115.604C328.481 115.604 327.904 114.835 327.904 113.598V113.591C327.904 112.347 328.488 111.592 329.408 111.592C330.303 111.592 330.925 112.366 330.925 113.591V113.598C330.925 114.829 330.309 115.604 329.408 115.604ZM336.385 117.108C337.28 117.108 338.004 116.683 338.391 115.984H338.429V117H340.283V112.334C340.283 110.963 339.146 110.056 337.388 110.056C335.592 110.056 334.512 110.957 334.411 112.214L334.405 112.29H336.099L336.112 112.233C336.201 111.795 336.62 111.471 337.312 111.471C338.035 111.471 338.429 111.846 338.429 112.449V112.868L336.747 112.969C335.058 113.077 334.1 113.801 334.1 115.039V115.051C334.1 116.251 335.02 117.108 336.385 117.108ZM335.934 114.956V114.943C335.934 114.461 336.309 114.156 337.026 114.112L338.429 114.023V114.512C338.429 115.223 337.82 115.756 336.988 115.756C336.347 115.756 335.934 115.458 335.934 114.956ZM341.832 117H343.686V113.191C343.686 112.201 344.219 111.655 345.133 111.655C345.4 111.655 345.654 111.693 345.806 111.757V110.125C345.666 110.087 345.476 110.056 345.273 110.056C344.479 110.056 343.927 110.544 343.724 111.382H343.686V110.195H341.832V117ZM348.212 119.241C349.723 119.241 350.637 118.727 351.171 117.121L353.506 110.195H351.551L350.11 115.515H350.06L348.625 110.195H346.587L348.993 117L348.911 117.222C348.746 117.686 348.441 117.844 347.889 117.844C347.616 117.844 347.4 117.806 347.267 117.781V119.158C347.483 119.196 347.851 119.241 348.212 119.241Z" fill="black"/>
<path d="M294.135 145.183C296.603 145.183 298.244 143.909 298.244 142.019V142.004C298.244 140.569 297.218 139.661 295.651 139.514V139.47C296.889 139.214 297.855 138.357 297.855 137.039V137.024C297.855 135.361 296.391 134.248 294.113 134.248C291.894 134.248 290.407 135.449 290.26 137.28L290.253 137.368H292.282L292.289 137.302C292.377 136.482 293.08 135.947 294.113 135.947C295.153 135.947 295.761 136.46 295.761 137.317V137.332C295.761 138.188 295.043 138.774 293.937 138.774H292.758V140.349H293.966C295.241 140.349 295.995 140.906 295.995 141.917V141.931C295.995 142.795 295.263 143.403 294.127 143.403C292.985 143.403 292.238 142.839 292.143 142.085L292.128 142.004H290.019L290.026 142.1C290.172 143.923 291.74 145.183 294.135 145.183ZM304.761 145.183C307.317 145.183 309.17 143.579 309.375 141.331L309.382 141.25H307.229L307.214 141.323C306.929 142.576 306.035 143.308 304.761 143.308C303.069 143.308 301.985 141.931 301.985 139.705V139.697C301.985 137.485 303.069 136.123 304.761 136.123C306.079 136.123 306.943 136.885 307.192 138.049L307.222 138.174H309.375L309.368 138.108C309.163 135.867 307.324 134.248 304.761 134.248C301.677 134.248 299.729 136.299 299.729 139.705V139.712C299.729 143.118 301.67 145.183 304.761 145.183ZM314.903 145.183C317.371 145.183 319.012 143.909 319.012 142.019V142.004C319.012 140.569 317.987 139.661 316.419 139.514V139.47C317.657 139.214 318.624 138.357 318.624 137.039V137.024C318.624 135.361 317.159 134.248 314.881 134.248C312.662 134.248 311.175 135.449 311.029 137.28L311.021 137.368H313.05L313.057 137.302C313.145 136.482 313.848 135.947 314.881 135.947C315.921 135.947 316.529 136.46 316.529 137.317V137.332C316.529 138.188 315.811 138.774 314.705 138.774H313.526V140.349H314.735C316.009 140.349 316.763 140.906 316.763 141.917V141.931C316.763 142.795 316.031 143.403 314.896 143.403C313.753 143.403 313.006 142.839 312.911 142.085L312.896 142.004H310.787L310.794 142.1C310.941 143.923 312.508 145.183 314.903 145.183ZM325.529 145.183C328.085 145.183 329.938 143.579 330.143 141.331L330.151 141.25H327.997L327.983 141.323C327.697 142.576 326.803 143.308 325.529 143.308C323.837 143.308 322.753 141.931 322.753 139.705V139.697C322.753 137.485 323.837 136.123 325.529 136.123C326.847 136.123 327.712 136.885 327.961 138.049L327.99 138.174H330.143L330.136 138.108C329.931 135.867 328.092 134.248 325.529 134.248C322.446 134.248 320.497 136.299 320.497 139.705V139.712C320.497 143.118 322.438 145.183 325.529 145.183ZM336.821 145H338.923V143.059H340.315V141.294H338.923V134.431H335.803L331.563 141.213V143.059H336.821V145ZM333.489 141.353V141.294L336.814 136.028H336.865V141.353H333.489ZM345.777 145.183C348.246 145.183 349.886 143.909 349.886 142.019V142.004C349.886 140.569 348.861 139.661 347.293 139.514V139.47C348.531 139.214 349.498 138.357 349.498 137.039V137.024C349.498 135.361 348.033 134.248 345.755 134.248C343.536 134.248 342.049 135.449 341.903 137.28L341.896 137.368H343.924L343.932 137.302C344.02 136.482 344.723 135.947 345.755 135.947C346.795 135.947 347.403 136.46 347.403 137.317V137.332C347.403 138.188 346.686 138.774 345.58 138.774H344.4V140.349H345.609C346.883 140.349 347.638 140.906 347.638 141.917V141.931C347.638 142.795 346.905 143.403 345.77 143.403C344.627 143.403 343.88 142.839 343.785 142.085L343.771 142.004H341.661L341.668 142.1C341.815 143.923 343.382 145.183 345.777 145.183Z" fill="black"/>
<circle cx="430" cy="76" r="22" fill="#3C3C43" fill-opacity="0.3"/>
<path d="M409.034 117H410.951V109.421H413.604V107.84H406.387V109.421H409.034V117ZM416.455 117.14C418.397 117.14 419.337 115.991 419.546 114.988L419.565 114.918H417.864L417.852 114.956C417.718 115.337 417.255 115.756 416.493 115.756C415.547 115.756 414.957 115.121 414.938 114.036H419.623V113.464C419.623 111.408 418.372 110.056 416.379 110.056C414.386 110.056 413.11 111.439 413.11 113.604V113.61C413.11 115.788 414.373 117.14 416.455 117.14ZM416.411 111.439C417.179 111.439 417.731 111.928 417.845 112.868H414.957C415.078 111.947 415.649 111.439 416.411 111.439ZM420.931 117H422.785V113.191C422.785 112.201 423.318 111.655 424.232 111.655C424.498 111.655 424.752 111.693 424.905 111.757V110.125C424.765 110.087 424.575 110.056 424.371 110.056C423.578 110.056 423.026 110.544 422.823 111.382H422.785V110.195H420.931V117ZM428.974 117.14C429.362 117.14 429.66 117.102 429.869 117.07V115.711C429.755 115.724 429.635 115.743 429.47 115.743C428.911 115.743 428.625 115.527 428.625 114.893V111.592H429.869V110.195H428.625V108.532H426.753V110.195H425.807V111.592H426.753V115.096C426.753 116.556 427.464 117.14 428.974 117.14ZM432.206 109.319C432.765 109.319 433.196 108.881 433.196 108.354C433.196 107.828 432.765 107.39 432.206 107.39C431.648 107.39 431.216 107.828 431.216 108.354C431.216 108.881 431.648 109.319 432.206 109.319ZM431.279 117H433.133V110.195H431.279V117ZM436.752 117.108C437.647 117.108 438.371 116.683 438.758 115.984H438.796V117H440.65V112.334C440.65 110.963 439.513 110.056 437.755 110.056C435.959 110.056 434.879 110.957 434.778 112.214L434.772 112.29H436.466L436.479 112.233C436.568 111.795 436.987 111.471 437.679 111.471C438.402 111.471 438.796 111.846 438.796 112.449V112.868L437.114 112.969C435.425 113.077 434.467 113.801 434.467 115.039V115.051C434.467 116.251 435.387 117.108 436.752 117.108ZM436.301 114.956V114.943C436.301 114.461 436.676 114.156 437.393 114.112L438.796 114.023V114.512C438.796 115.223 438.187 115.756 437.355 115.756C436.714 115.756 436.301 115.458 436.301 114.956ZM442.199 117H444.053V113.191C444.053 112.201 444.586 111.655 445.5 111.655C445.767 111.655 446.021 111.693 446.173 111.757V110.125C446.033 110.087 445.843 110.056 445.64 110.056C444.846 110.056 444.294 110.544 444.091 111.382H444.053V110.195H442.199V117ZM448.579 119.241C450.09 119.241 451.004 118.727 451.537 117.121L453.873 110.195H451.918L450.477 115.515H450.427L448.992 110.195H446.954L449.36 117L449.278 117.222C449.113 117.686 448.808 117.844 448.256 117.844C447.983 117.844 447.767 117.806 447.634 117.781V119.158C447.85 119.196 448.218 119.241 448.579 119.241Z" fill="black"/>
<path d="M404.135 145.183C406.603 145.183 408.244 143.909 408.244 142.019V142.004C408.244 140.569 407.218 139.661 405.651 139.514V139.47C406.889 139.214 407.855 138.357 407.855 137.039V137.024C407.855 135.361 406.391 134.248 404.113 134.248C401.894 134.248 400.407 135.449 400.26 137.28L400.253 137.368H402.282L402.289 137.302C402.377 136.482 403.08 135.947 404.113 135.947C405.153 135.947 405.761 136.46 405.761 137.317V137.332C405.761 138.188 405.043 138.774 403.937 138.774H402.758V140.349H403.966C405.241 140.349 405.995 140.906 405.995 141.917V141.931C405.995 142.795 405.263 143.403 404.127 143.403C402.985 143.403 402.238 142.839 402.143 142.085L402.128 142.004H400.019L400.026 142.1C400.172 143.923 401.74 145.183 404.135 145.183ZM414.761 145.183C417.317 145.183 419.17 143.579 419.375 141.331L419.382 141.25H417.229L417.214 141.323C416.929 142.576 416.035 143.308 414.761 143.308C413.069 143.308 411.985 141.931 411.985 139.705V139.697C411.985 137.485 413.069 136.123 414.761 136.123C416.079 136.123 416.943 136.885 417.192 138.049L417.222 138.174H419.375L419.368 138.108C419.163 135.867 417.324 134.248 414.761 134.248C411.677 134.248 409.729 136.299 409.729 139.705V139.712C409.729 143.118 411.67 145.183 414.761 145.183ZM424.903 145.183C427.371 145.183 429.012 143.909 429.012 142.019V142.004C429.012 140.569 427.987 139.661 426.419 139.514V139.47C427.657 139.214 428.624 138.357 428.624 137.039V137.024C428.624 135.361 427.159 134.248 424.881 134.248C422.662 134.248 421.175 135.449 421.029 137.28L421.021 137.368H423.05L423.057 137.302C423.145 136.482 423.848 135.947 424.881 135.947C425.921 135.947 426.529 136.46 426.529 137.317V137.332C426.529 138.188 425.811 138.774 424.705 138.774H423.526V140.349H424.735C426.009 140.349 426.763 140.906 426.763 141.917V141.931C426.763 142.795 426.031 143.403 424.896 143.403C423.753 143.403 423.006 142.839 422.911 142.085L422.896 142.004H420.787L420.794 142.1C420.941 143.923 422.508 145.183 424.903 145.183ZM435.529 145.183C438.085 145.183 439.938 143.579 440.143 141.331L440.151 141.25H437.997L437.983 141.323C437.697 142.576 436.803 143.308 435.529 143.308C433.837 143.308 432.753 141.931 432.753 139.705V139.697C432.753 137.485 433.837 136.123 435.529 136.123C436.847 136.123 437.712 136.885 437.961 138.049L437.99 138.174H440.143L440.136 138.108C439.931 135.867 438.092 134.248 435.529 134.248C432.446 134.248 430.497 136.299 430.497 139.705V139.712C430.497 143.118 432.438 145.183 435.529 145.183ZM446.821 145H448.923V143.059H450.315V141.294H448.923V134.431H445.803L441.563 141.213V143.059H446.821V145ZM443.489 141.353V141.294L446.814 136.028H446.865V141.353H443.489ZM455.777 145.183C458.246 145.183 459.886 143.909 459.886 142.019V142.004C459.886 140.569 458.861 139.661 457.293 139.514V139.47C458.531 139.214 459.498 138.357 459.498 137.039V137.024C459.498 135.361 458.033 134.248 455.755 134.248C453.536 134.248 452.049 135.449 451.903 137.28L451.896 137.368H453.924L453.932 137.302C454.02 136.482 454.723 135.947 455.755 135.947C456.795 135.947 457.403 136.46 457.403 137.317V137.332C457.403 138.188 456.686 138.774 455.58 138.774H454.4V140.349H455.609C456.883 140.349 457.638 140.906 457.638 141.917V141.931C457.638 142.795 456.905 143.403 455.77 143.403C454.627 143.403 453.88 142.839 453.785 142.085L453.771 142.004H451.661L451.668 142.1C451.815 143.923 453.382 145.183 455.777 145.183Z" fill="black"/>
<circle cx="540" cy="76" r="22" fill="#3C3C43" fill-opacity="0.18"/>
<path d="M509.588 117.159C510.172 117.159 510.711 117.076 511.2 116.911L511.873 117.857H513.695L512.501 116.181C513.466 115.362 514.006 114.067 514.006 112.423V112.411C514.006 109.503 512.304 107.682 509.588 107.682C506.877 107.682 505.17 109.497 505.17 112.411V112.423C505.17 115.337 506.864 117.159 509.588 117.159ZM509.588 115.534C508.083 115.534 507.125 114.34 507.125 112.423V112.411C507.125 110.494 508.09 109.307 509.588 109.307C511.092 109.307 512.044 110.5 512.044 112.411V112.423C512.044 113.35 511.822 114.112 511.416 114.645L510.863 113.858H509.042L510.178 115.464C509.994 115.508 509.791 115.534 509.588 115.534ZM517.752 117.14C518.78 117.14 519.478 116.657 519.827 115.876H519.865V117H521.719V110.195H519.865V114.105C519.865 114.994 519.338 115.604 518.507 115.604C517.675 115.604 517.256 115.089 517.256 114.201V110.195H515.403V114.588C515.403 116.181 516.254 117.14 517.752 117.14ZM525.3 117.108C526.195 117.108 526.918 116.683 527.306 115.984H527.344V117H529.197V112.334C529.197 110.963 528.061 110.056 526.303 110.056C524.506 110.056 523.427 110.957 523.326 112.214L523.319 112.29H525.014L525.027 112.233C525.116 111.795 525.535 111.471 526.227 111.471C526.95 111.471 527.344 111.846 527.344 112.449V112.868L525.662 112.969C523.973 113.077 523.015 113.801 523.015 115.039V115.051C523.015 116.251 523.935 117.108 525.3 117.108ZM524.849 114.956V114.943C524.849 114.461 525.224 114.156 525.941 114.112L527.344 114.023V114.512C527.344 115.223 526.734 115.756 525.903 115.756C525.262 115.756 524.849 115.458 524.849 114.956ZM533.451 117.14C533.838 117.14 534.137 117.102 534.346 117.07V115.711C534.232 115.724 534.111 115.743 533.946 115.743C533.388 115.743 533.102 115.527 533.102 114.893V111.592H534.346V110.195H533.102V108.532H531.229V110.195H530.284V111.592H531.229V115.096C531.229 116.556 531.94 117.14 533.451 117.14ZM538.714 117.14C540.657 117.14 541.596 115.991 541.805 114.988L541.825 114.918H540.123L540.111 114.956C539.977 115.337 539.514 115.756 538.752 115.756C537.806 115.756 537.216 115.121 537.197 114.036H541.882V113.464C541.882 111.408 540.631 110.056 538.638 110.056C536.645 110.056 535.369 111.439 535.369 113.604V113.61C535.369 115.788 536.632 117.14 538.714 117.14ZM538.67 111.439C539.438 111.439 539.99 111.928 540.104 112.868H537.216C537.337 111.947 537.908 111.439 538.67 111.439ZM543.19 117H545.044V113.191C545.044 112.201 545.577 111.655 546.491 111.655C546.758 111.655 547.011 111.693 547.164 111.757V110.125C547.024 110.087 546.834 110.056 546.631 110.056C545.837 110.056 545.285 110.544 545.082 111.382H545.044V110.195H543.19V117ZM548.275 117H550.129V113.09C550.129 112.201 550.656 111.592 551.487 111.592C552.319 111.592 552.738 112.1 552.738 112.988V117H554.591V112.607C554.591 111.014 553.741 110.056 552.243 110.056C551.214 110.056 550.516 110.532 550.167 111.312H550.129V110.195H548.275V117ZM558.141 117.108C559.036 117.108 559.759 116.683 560.146 115.984H560.185V117H562.038V112.334C562.038 110.963 560.902 110.056 559.144 110.056C557.347 110.056 556.268 110.957 556.167 112.214L556.16 112.29H557.855L557.868 112.233C557.957 111.795 558.375 111.471 559.067 111.471C559.791 111.471 560.185 111.846 560.185 112.449V112.868L558.502 112.969C556.814 113.077 555.855 113.801 555.855 115.039V115.051C555.855 116.251 556.776 117.108 558.141 117.108ZM557.69 114.956V114.943C557.69 114.461 558.064 114.156 558.782 114.112L560.185 114.023V114.512C560.185 115.223 559.575 115.756 558.744 115.756C558.103 115.756 557.69 115.458 557.69 114.956ZM563.588 117H565.441V113.191C565.441 112.201 565.975 111.655 566.889 111.655C567.155 111.655 567.409 111.693 567.561 111.757V110.125C567.422 110.087 567.231 110.056 567.028 110.056C566.235 110.056 565.683 110.544 565.479 111.382H565.441V110.195H563.588V117ZM569.968 119.241C571.479 119.241 572.393 118.727 572.926 117.121L575.262 110.195H573.307L571.866 115.515H571.815L570.381 110.195H568.343L570.749 117L570.666 117.222C570.501 117.686 570.197 117.844 569.644 117.844C569.371 117.844 569.156 117.806 569.022 117.781V119.158C569.238 119.196 569.606 119.241 569.968 119.241Z" fill="black"/>
<path d="M514.135 145.183C516.603 145.183 518.244 143.909 518.244 142.019V142.004C518.244 140.569 517.218 139.661 515.651 139.514V139.47C516.889 139.214 517.855 138.357 517.855 137.039V137.024C517.855 135.361 516.391 134.248 514.113 134.248C511.894 134.248 510.407 135.449 510.26 137.28L510.253 137.368H512.282L512.289 137.302C512.377 136.482 513.08 135.947 514.113 135.947C515.153 135.947 515.761 136.46 515.761 137.317V137.332C515.761 138.188 515.043 138.774 513.937 138.774H512.758V140.349H513.966C515.241 140.349 515.995 140.906 515.995 141.917V141.931C515.995 142.795 515.263 143.403 514.127 143.403C512.985 143.403 512.238 142.839 512.143 142.085L512.128 142.004H510.019L510.026 142.1C510.172 143.923 511.74 145.183 514.135 145.183ZM524.761 145.183C527.317 145.183 529.17 143.579 529.375 141.331L529.382 141.25H527.229L527.214 141.323C526.929 142.576 526.035 143.308 524.761 143.308C523.069 143.308 521.985 141.931 521.985 139.705V139.697C521.985 137.485 523.069 136.123 524.761 136.123C526.079 136.123 526.943 136.885 527.192 138.049L527.222 138.174H529.375L529.368 138.108C529.163 135.867 527.324 134.248 524.761 134.248C521.677 134.248 519.729 136.299 519.729 139.705V139.712C519.729 143.118 521.67 145.183 524.761 145.183ZM534.903 145.183C537.371 145.183 539.012 143.909 539.012 142.019V142.004C539.012 140.569 537.987 139.661 536.419 139.514V139.47C537.657 139.214 538.624 138.357 538.624 137.039V137.024C538.624 135.361 537.159 134.248 534.881 134.248C532.662 134.248 531.175 135.449 531.029 137.28L531.021 137.368H533.05L533.057 137.302C533.145 136.482 533.848 135.947 534.881 135.947C535.921 135.947 536.529 136.46 536.529 137.317V137.332C536.529 138.188 535.811 138.774 534.705 138.774H533.526V140.349H534.735C536.009 140.349 536.763 140.906 536.763 141.917V141.931C536.763 142.795 536.031 143.403 534.896 143.403C533.753 143.403 533.006 142.839 532.911 142.085L532.896 142.004H530.787L530.794 142.1C530.941 143.923 532.508 145.183 534.903 145.183ZM545.529 145.183C548.085 145.183 549.938 143.579 550.143 141.331L550.151 141.25H547.997L547.983 141.323C547.697 142.576 546.803 143.308 545.529 143.308C543.837 143.308 542.753 141.931 542.753 139.705V139.697C542.753 137.485 543.837 136.123 545.529 136.123C546.847 136.123 547.712 136.885 547.961 138.049L547.99 138.174H550.143L550.136 138.108C549.931 135.867 548.092 134.248 545.529 134.248C542.446 134.248 540.497 136.299 540.497 139.705V139.712C540.497 143.118 542.438 145.183 545.529 145.183ZM556.821 145H558.923V143.059H560.315V141.294H558.923V134.431H555.803L551.563 141.213V143.059H556.821V145ZM553.489 141.353V141.294L556.814 136.028H556.865V141.353H553.489ZM565.777 145.183C568.246 145.183 569.886 143.909 569.886 142.019V142.004C569.886 140.569 568.861 139.661 567.293 139.514V139.47C568.531 139.214 569.498 138.357 569.498 137.039V137.024C569.498 135.361 568.033 134.248 565.755 134.248C563.536 134.248 562.049 135.449 561.903 137.28L561.896 137.368H563.924L563.932 137.302C564.02 136.482 564.723 135.947 565.755 135.947C566.795 135.947 567.403 136.46 567.403 137.317V137.332C567.403 138.188 566.686 138.774 565.58 138.774H564.4V140.349H565.609C566.883 140.349 567.638 140.906 567.638 141.917V141.931C567.638 142.795 566.905 143.403 565.77 143.403C564.627 143.403 563.88 142.839 563.785 142.085L563.771 142.004H561.661L561.668 142.1C561.815 143.923 563.382 145.183 565.777 145.183Z" fill="black"/>
</g>
<g filter="url(#filter1_d_40_2621)">
<path d="M0 208H640V358C640 385.614 617.614 408 590 408H50C22.3858 408 0 385.614 0 358V208Z" fill="#312B5B" shape-rendering="crispEdges"/>
<path d="M51.1723 315H56.5531C60.7816 315 63.2719 312.373 63.2719 307.9V307.881C63.2719 303.418 60.7719 300.908 56.5531 300.908H51.1723V315ZM54.1215 312.559V303.34H56.2016C58.7895 303.34 60.2641 304.951 60.2641 307.891V307.91C60.2641 310.957 58.8383 312.559 56.2016 312.559H54.1215ZM68.3387 315.166C69.7156 315.166 70.8289 314.512 71.4246 313.438H71.4832V315H74.3348V307.822C74.3348 305.713 72.5867 304.316 69.8816 304.316C67.118 304.316 65.4578 305.703 65.3016 307.637L65.2918 307.754H67.8992L67.9188 307.666C68.0555 306.992 68.7 306.494 69.7645 306.494C70.8777 306.494 71.4832 307.07 71.4832 307.998V308.643L68.8953 308.799C66.2977 308.965 64.823 310.078 64.823 311.982V312.002C64.823 313.848 66.2391 315.166 68.3387 315.166ZM67.6453 311.855V311.836C67.6453 311.094 68.2215 310.625 69.325 310.557L71.4832 310.42V311.172C71.4832 312.266 70.5457 313.086 69.2664 313.086C68.2801 313.086 67.6453 312.627 67.6453 311.855ZM76.5305 315H79.382V309.141C79.382 307.617 80.2023 306.777 81.6086 306.777C82.0188 306.777 82.4094 306.836 82.6438 306.934V304.424C82.4289 304.365 82.1359 304.316 81.8234 304.316C80.6027 304.316 79.7531 305.068 79.4406 306.357H79.382V304.531H76.5305V315ZM84.2633 315H87.1148V311.533L87.8473 310.723L90.8453 315H94.1363L89.9859 309.033L93.941 304.531H90.7086L87.1734 308.721H87.1148V300.908H84.2633V315Z" fill="white"/>
<circle cx="210" cy="280" r="22" fill="white"/>
<path d="M186.6 321H188.517V318.112H190.282C192.211 318.112 193.5 316.868 193.5 314.982V314.97C193.5 313.084 192.211 311.84 190.282 311.84H186.6V321ZM189.812 313.357C190.91 313.357 191.557 313.935 191.557 314.976V314.989C191.557 316.03 190.91 316.614 189.812 316.614H188.517V313.357H189.812ZM194.827 321H196.681V317.191C196.681 316.201 197.214 315.655 198.128 315.655C198.395 315.655 198.649 315.693 198.801 315.757V314.125C198.661 314.087 198.471 314.056 198.268 314.056C197.474 314.056 196.922 314.544 196.719 315.382H196.681V314.195H194.827V321ZM200.878 313.319C201.436 313.319 201.868 312.881 201.868 312.354C201.868 311.828 201.436 311.39 200.878 311.39C200.319 311.39 199.887 311.828 199.887 312.354C199.887 312.881 200.319 313.319 200.878 313.319ZM199.951 321H201.804V314.195H199.951V321ZM203.398 321H205.252V316.893C205.252 316.125 205.728 315.592 206.433 315.592C207.118 315.592 207.531 316.023 207.531 316.753V321H209.314V316.861C209.314 316.106 209.778 315.592 210.482 315.592C211.2 315.592 211.593 316.023 211.593 316.811V321H213.447V316.347C213.447 314.976 212.552 314.056 211.219 314.056C210.222 314.056 209.41 314.602 209.105 315.458H209.067C208.838 314.563 208.146 314.056 207.194 314.056C206.28 314.056 205.569 314.563 205.29 315.338H205.252V314.195H203.398V321ZM216.996 321.108C217.891 321.108 218.615 320.683 219.002 319.984H219.04V321H220.893V316.334C220.893 314.963 219.757 314.056 217.999 314.056C216.203 314.056 215.123 314.957 215.022 316.214L215.016 316.29H216.71L216.723 316.233C216.812 315.795 217.231 315.471 217.923 315.471C218.646 315.471 219.04 315.846 219.04 316.449V316.868L217.358 316.969C215.669 317.077 214.711 317.801 214.711 319.039V319.051C214.711 320.251 215.631 321.108 216.996 321.108ZM216.545 318.956V318.943C216.545 318.461 216.92 318.156 217.637 318.112L219.04 318.023V318.512C219.04 319.223 218.431 319.756 217.599 319.756C216.958 319.756 216.545 319.458 216.545 318.956ZM222.443 321H224.297V317.191C224.297 316.201 224.83 315.655 225.744 315.655C226.011 315.655 226.264 315.693 226.417 315.757V314.125C226.277 314.087 226.087 314.056 225.884 314.056C225.09 314.056 224.538 314.544 224.335 315.382H224.297V314.195H222.443V321ZM228.823 323.241C230.334 323.241 231.248 322.727 231.781 321.121L234.117 314.195H232.162L230.721 319.515H230.671L229.236 314.195H227.198L229.604 321L229.522 321.222C229.357 321.686 229.052 321.844 228.5 321.844C228.227 321.844 228.011 321.806 227.878 321.781V323.158C228.093 323.196 228.462 323.241 228.823 323.241Z" fill="white"/>
<path d="M185.307 349H187.519V344.84H191.818V343.089H187.519V340.255H192.228V338.431H185.307V349ZM193.889 349H196.101V344.84H200.4V343.089H196.101V340.255H200.81V338.431H193.889V349ZM202.471 349H204.683V344.84H208.983V343.089H204.683V340.255H209.393V338.431H202.471V349ZM211.054 349H213.266V344.84H217.565V343.089H213.266V340.255H217.975V338.431H211.054V349ZM219.636 349H221.848V344.84H226.148V343.089H221.848V340.255H226.558V338.431H219.636V349ZM228.219 349H230.431V344.84H234.73V343.089H230.431V340.255H235.14V338.431H228.219V349Z" fill="white"/>
<circle cx="320" cy="280" r="22" fill="#EBEBF5" fill-opacity="0.6"/>
<path d="M290.556 321.159C292.867 321.159 294.25 320.042 294.25 318.283V318.277C294.25 316.836 293.387 316.055 291.47 315.674L290.499 315.478C289.445 315.268 288.975 314.932 288.975 314.354V314.348C288.975 313.694 289.566 313.243 290.55 313.237C291.496 313.237 292.156 313.675 292.251 314.392L292.257 314.468H294.066L294.06 314.348C293.971 312.742 292.67 311.682 290.55 311.682C288.518 311.682 287.058 312.786 287.058 314.462V314.468C287.058 315.846 287.973 316.709 289.782 317.071L290.746 317.261C291.883 317.496 292.333 317.807 292.333 318.429V318.436C292.333 319.134 291.667 319.597 290.607 319.597C289.559 319.597 288.804 319.153 288.683 318.442L288.671 318.372H286.862L286.868 318.474C286.976 320.162 288.379 321.159 290.556 321.159ZM298.714 321.14C300.656 321.14 301.596 319.991 301.805 318.988L301.824 318.918H300.123L300.11 318.956C299.977 319.337 299.513 319.756 298.752 319.756C297.806 319.756 297.216 319.121 297.197 318.036H301.881V317.464C301.881 315.408 300.631 314.056 298.637 314.056C296.644 314.056 295.368 315.439 295.368 317.604V317.61C295.368 319.788 296.632 321.14 298.714 321.14ZM298.669 315.439C299.437 315.439 299.99 315.928 300.104 316.868H297.216C297.336 315.947 297.908 315.439 298.669 315.439ZM306.3 321.14C308.115 321.14 309.29 320.01 309.379 318.524V318.486H307.652L307.646 318.543C307.519 319.229 307.055 319.686 306.313 319.686C305.399 319.686 304.827 318.931 304.827 317.598V317.591C304.827 316.29 305.399 315.509 306.306 315.509C307.074 315.509 307.525 316.004 307.639 316.652L307.652 316.709H309.372V316.665C309.302 315.192 308.128 314.056 306.281 314.056C304.243 314.056 302.942 315.408 302.942 317.585V317.591C302.942 319.788 304.224 321.14 306.3 321.14ZM313.747 321.14C315.803 321.14 317.117 319.819 317.117 317.598V317.585C317.117 315.382 315.778 314.056 313.74 314.056C311.709 314.056 310.376 315.395 310.376 317.585V317.598C310.376 319.813 311.677 321.14 313.747 321.14ZM313.753 319.686C312.839 319.686 312.261 318.931 312.261 317.598V317.585C312.261 316.271 312.845 315.509 313.74 315.509C314.642 315.509 315.232 316.271 315.232 317.585V317.598C315.232 318.924 314.654 319.686 313.753 319.686ZM318.426 321H320.279V317.09C320.279 316.201 320.806 315.592 321.638 315.592C322.469 315.592 322.888 316.1 322.888 316.988V321H324.742V316.607C324.742 315.014 323.891 314.056 322.393 314.056C321.365 314.056 320.667 314.532 320.317 315.312H320.279V314.195H318.426V321ZM328.786 321.14C329.77 321.14 330.519 320.645 330.881 319.838H330.919V321H332.772V311.84H330.919V315.376H330.881C330.513 314.551 329.751 314.056 328.786 314.056C327.072 314.056 326.018 315.376 326.018 317.591V317.598C326.018 319.807 327.072 321.14 328.786 321.14ZM329.408 319.604C328.481 319.604 327.904 318.835 327.904 317.598V317.591C327.904 316.347 328.488 315.592 329.408 315.592C330.303 315.592 330.925 316.366 330.925 317.591V317.598C330.925 318.829 330.309 319.604 329.408 319.604ZM336.385 321.108C337.28 321.108 338.004 320.683 338.391 319.984H338.429V321H340.283V316.334C340.283 314.963 339.146 314.056 337.388 314.056C335.592 314.056 334.512 314.957 334.411 316.214L334.405 316.29H336.099L336.112 316.233C336.201 315.795 336.62 315.471 337.312 315.471C338.035 315.471 338.429 315.846 338.429 316.449V316.868L336.747 316.969C335.058 317.077 334.1 317.801 334.1 319.039V319.051C334.1 320.251 335.02 321.108 336.385 321.108ZM335.934 318.956V318.943C335.934 318.461 336.309 318.156 337.026 318.112L338.429 318.023V318.512C338.429 319.223 337.82 319.756 336.988 319.756C336.347 319.756 335.934 319.458 335.934 318.956ZM341.832 321H343.686V317.191C343.686 316.201 344.219 315.655 345.133 315.655C345.4 315.655 345.654 315.693 345.806 315.757V314.125C345.666 314.087 345.476 314.056 345.273 314.056C344.479 314.056 343.927 314.544 343.724 315.382H343.686V314.195H341.832V321ZM348.212 323.241C349.723 323.241 350.637 322.727 351.171 321.121L353.506 314.195H351.551L350.11 319.515H350.06L348.625 314.195H346.587L348.993 321L348.911 321.222C348.746 321.686 348.441 321.844 347.889 321.844C347.616 321.844 347.4 321.806 347.267 321.781V323.158C347.483 323.196 347.851 323.241 348.212 323.241Z" fill="white"/>
<path d="M293.007 349H300.009V347.176H295.219V344.518H299.738V342.789H295.219V340.255H300.009V338.431H293.007V349ZM301.955 349H306.636C308.892 349 310.29 347.843 310.29 345.99V345.975C310.29 344.591 309.228 343.551 307.756 343.441V343.397C308.921 343.243 309.8 342.254 309.8 341.097V341.083C309.8 339.457 308.547 338.431 306.555 338.431H301.955V349ZM305.984 340.072C307.017 340.072 307.624 340.555 307.624 341.397V341.412C307.624 342.328 306.958 342.848 305.713 342.848H304.167V340.072H305.984ZM305.976 344.349C307.331 344.349 308.035 344.869 308.035 345.836V345.851C308.035 346.832 307.339 347.352 306.072 347.352H304.167V344.349H305.976ZM311.9 349H318.902V347.176H314.112V344.518H318.631V342.789H314.112V340.255H318.902V338.431H311.9V349ZM320.849 349H325.529C327.785 349 329.184 347.843 329.184 345.99V345.975C329.184 344.591 328.122 343.551 326.65 343.441V343.397C327.814 343.243 328.693 342.254 328.693 341.097V341.083C328.693 339.457 327.441 338.431 325.448 338.431H320.849V349ZM324.877 340.072C325.91 340.072 326.518 340.555 326.518 341.397V341.412C326.518 342.328 325.851 342.848 324.606 342.848H323.061V340.072H324.877ZM324.87 344.349C326.225 344.349 326.928 344.869 326.928 345.836V345.851C326.928 346.832 326.232 347.352 324.965 347.352H323.061V344.349H324.87ZM330.794 349H333.005V344.84H337.305V343.089H333.005V340.255H337.715V338.431H330.794V349ZM343.302 349.183C345.719 349.183 347.389 347.682 347.389 345.47V345.455C347.389 343.463 345.938 342.02 343.932 342.02C342.862 342.02 341.991 342.452 341.551 343.163H341.507L341.764 340.189H346.751V338.431H340.006L339.522 344.635H341.449C341.573 344.415 341.742 344.21 341.954 344.049C342.313 343.763 342.774 343.602 343.316 343.602C344.459 343.602 345.272 344.386 345.279 345.499V345.514C345.279 346.642 344.466 347.433 343.309 347.433C342.291 347.433 341.551 346.817 341.397 346.019L341.383 345.968H339.339L339.347 346.078C339.479 347.843 341.002 349.183 343.302 349.183Z" fill="white"/>
<circle cx="430" cy="280" r="22" fill="#EBEBF5" fill-opacity="0.3"/>
<path d="M409.034 321H410.951V313.421H413.604V311.84H406.387V313.421H409.034V321ZM416.455 321.14C418.397 321.14 419.337 319.991 419.546 318.988L419.565 318.918H417.864L417.852 318.956C417.718 319.337 417.255 319.756 416.493 319.756C415.547 319.756 414.957 319.121 414.938 318.036H419.623V317.464C419.623 315.408 418.372 314.056 416.379 314.056C414.386 314.056 413.11 315.439 413.11 317.604V317.61C413.11 319.788 414.373 321.14 416.455 321.14ZM416.411 315.439C417.179 315.439 417.731 315.928 417.845 316.868H414.957C415.078 315.947 415.649 315.439 416.411 315.439ZM420.931 321H422.785V317.191C422.785 316.201 423.318 315.655 424.232 315.655C424.498 315.655 424.752 315.693 424.905 315.757V314.125C424.765 314.087 424.575 314.056 424.371 314.056C423.578 314.056 423.026 314.544 422.823 315.382H422.785V314.195H420.931V321ZM428.974 321.14C429.362 321.14 429.66 321.102 429.869 321.07V319.711C429.755 319.724 429.635 319.743 429.47 319.743C428.911 319.743 428.625 319.527 428.625 318.893V315.592H429.869V314.195H428.625V312.532H426.753V314.195H425.807V315.592H426.753V319.096C426.753 320.556 427.464 321.14 428.974 321.14ZM432.206 313.319C432.765 313.319 433.196 312.881 433.196 312.354C433.196 311.828 432.765 311.39 432.206 311.39C431.648 311.39 431.216 311.828 431.216 312.354C431.216 312.881 431.648 313.319 432.206 313.319ZM431.279 321H433.133V314.195H431.279V321ZM436.752 321.108C437.647 321.108 438.371 320.683 438.758 319.984H438.796V321H440.65V316.334C440.65 314.963 439.513 314.056 437.755 314.056C435.959 314.056 434.879 314.957 434.778 316.214L434.772 316.29H436.466L436.479 316.233C436.568 315.795 436.987 315.471 437.679 315.471C438.402 315.471 438.796 315.846 438.796 316.449V316.868L437.114 316.969C435.425 317.077 434.467 317.801 434.467 319.039V319.051C434.467 320.251 435.387 321.108 436.752 321.108ZM436.301 318.956V318.943C436.301 318.461 436.676 318.156 437.393 318.112L438.796 318.023V318.512C438.796 319.223 438.187 319.756 437.355 319.756C436.714 319.756 436.301 319.458 436.301 318.956ZM442.199 321H444.053V317.191C444.053 316.201 444.586 315.655 445.5 315.655C445.767 315.655 446.021 315.693 446.173 315.757V314.125C446.033 314.087 445.843 314.056 445.64 314.056C444.846 314.056 444.294 314.544 444.091 315.382H444.053V314.195H442.199V321ZM448.579 323.241C450.09 323.241 451.004 322.727 451.537 321.121L453.873 314.195H451.918L450.477 319.515H450.427L448.992 314.195H446.954L449.36 321L449.278 321.222C449.113 321.686 448.808 321.844 448.256 321.844C447.983 321.844 447.767 321.806 447.634 321.781V323.158C447.85 323.196 448.218 323.241 448.579 323.241Z" fill="white"/>
<path d="M403.007 349H410.009V347.176H405.219V344.518H409.738V342.789H405.219V340.255H410.009V338.431H403.007V349ZM411.955 349H416.636C418.892 349 420.29 347.843 420.29 345.99V345.975C420.29 344.591 419.228 343.551 417.756 343.441V343.397C418.921 343.243 419.8 342.254 419.8 341.097V341.083C419.8 339.457 418.547 338.431 416.555 338.431H411.955V349ZM415.984 340.072C417.017 340.072 417.624 340.555 417.624 341.397V341.412C417.624 342.328 416.958 342.848 415.713 342.848H414.167V340.072H415.984ZM415.976 344.349C417.331 344.349 418.035 344.869 418.035 345.836V345.851C418.035 346.832 417.339 347.352 416.072 347.352H414.167V344.349H415.976ZM421.9 349H428.902V347.176H424.112V344.518H428.631V342.789H424.112V340.255H428.902V338.431H421.9V349ZM430.849 349H435.529C437.785 349 439.184 347.843 439.184 345.99V345.975C439.184 344.591 438.122 343.551 436.65 343.441V343.397C437.814 343.243 438.693 342.254 438.693 341.097V341.083C438.693 339.457 437.441 338.431 435.448 338.431H430.849V349ZM434.877 340.072C435.91 340.072 436.518 340.555 436.518 341.397V341.412C436.518 342.328 435.851 342.848 434.606 342.848H433.061V340.072H434.877ZM434.87 344.349C436.225 344.349 436.928 344.869 436.928 345.836V345.851C436.928 346.832 436.232 347.352 434.965 347.352H433.061V344.349H434.87ZM440.794 349H443.005V344.84H447.305V343.089H443.005V340.255H447.715V338.431H440.794V349ZM453.302 349.183C455.719 349.183 457.389 347.682 457.389 345.47V345.455C457.389 343.463 455.938 342.02 453.932 342.02C452.862 342.02 451.991 342.452 451.551 343.163H451.507L451.764 340.189H456.751V338.431H450.006L449.522 344.635H451.449C451.573 344.415 451.742 344.21 451.954 344.049C452.313 343.763 452.774 343.602 453.316 343.602C454.459 343.602 455.272 344.386 455.279 345.499V345.514C455.279 346.642 454.466 347.433 453.309 347.433C452.291 347.433 451.551 346.817 451.397 346.019L451.383 345.968H449.339L449.347 346.078C449.479 347.843 451.002 349.183 453.302 349.183Z" fill="white"/>
<circle cx="540" cy="280" r="22" fill="#EBEBF5" fill-opacity="0.18"/>
<path d="M509.588 321.159C510.172 321.159 510.711 321.076 511.2 320.911L511.873 321.857H513.695L512.501 320.181C513.466 319.362 514.006 318.067 514.006 316.423V316.411C514.006 313.503 512.304 311.682 509.588 311.682C506.877 311.682 505.17 313.497 505.17 316.411V316.423C505.17 319.337 506.864 321.159 509.588 321.159ZM509.588 319.534C508.083 319.534 507.125 318.34 507.125 316.423V316.411C507.125 314.494 508.09 313.307 509.588 313.307C511.092 313.307 512.044 314.5 512.044 316.411V316.423C512.044 317.35 511.822 318.112 511.416 318.645L510.863 317.858H509.042L510.178 319.464C509.994 319.508 509.791 319.534 509.588 319.534ZM517.752 321.14C518.78 321.14 519.478 320.657 519.827 319.876H519.865V321H521.719V314.195H519.865V318.105C519.865 318.994 519.338 319.604 518.507 319.604C517.675 319.604 517.256 319.089 517.256 318.201V314.195H515.403V318.588C515.403 320.181 516.254 321.14 517.752 321.14ZM525.3 321.108C526.195 321.108 526.918 320.683 527.306 319.984H527.344V321H529.197V316.334C529.197 314.963 528.061 314.056 526.303 314.056C524.506 314.056 523.427 314.957 523.326 316.214L523.319 316.29H525.014L525.027 316.233C525.116 315.795 525.535 315.471 526.227 315.471C526.95 315.471 527.344 315.846 527.344 316.449V316.868L525.662 316.969C523.973 317.077 523.015 317.801 523.015 319.039V319.051C523.015 320.251 523.935 321.108 525.3 321.108ZM524.849 318.956V318.943C524.849 318.461 525.224 318.156 525.941 318.112L527.344 318.023V318.512C527.344 319.223 526.734 319.756 525.903 319.756C525.262 319.756 524.849 319.458 524.849 318.956ZM533.451 321.14C533.838 321.14 534.137 321.102 534.346 321.07V319.711C534.232 319.724 534.111 319.743 533.946 319.743C533.388 319.743 533.102 319.527 533.102 318.893V315.592H534.346V314.195H533.102V312.532H531.229V314.195H530.284V315.592H531.229V319.096C531.229 320.556 531.94 321.14 533.451 321.14ZM538.714 321.14C540.657 321.14 541.596 319.991 541.805 318.988L541.825 318.918H540.123L540.111 318.956C539.977 319.337 539.514 319.756 538.752 319.756C537.806 319.756 537.216 319.121 537.197 318.036H541.882V317.464C541.882 315.408 540.631 314.056 538.638 314.056C536.645 314.056 535.369 315.439 535.369 317.604V317.61C535.369 319.788 536.632 321.14 538.714 321.14ZM538.67 315.439C539.438 315.439 539.99 315.928 540.104 316.868H537.216C537.337 315.947 537.908 315.439 538.67 315.439ZM543.19 321H545.044V317.191C545.044 316.201 545.577 315.655 546.491 315.655C546.758 315.655 547.011 315.693 547.164 315.757V314.125C547.024 314.087 546.834 314.056 546.631 314.056C545.837 314.056 545.285 314.544 545.082 315.382H545.044V314.195H543.19V321ZM548.275 321H550.129V317.09C550.129 316.201 550.656 315.592 551.487 315.592C552.319 315.592 552.738 316.1 552.738 316.988V321H554.591V316.607C554.591 315.014 553.741 314.056 552.243 314.056C551.214 314.056 550.516 314.532 550.167 315.312H550.129V314.195H548.275V321ZM558.141 321.108C559.036 321.108 559.759 320.683 560.146 319.984H560.185V321H562.038V316.334C562.038 314.963 560.902 314.056 559.144 314.056C557.347 314.056 556.268 314.957 556.167 316.214L556.16 316.29H557.855L557.868 316.233C557.957 315.795 558.375 315.471 559.067 315.471C559.791 315.471 560.185 315.846 560.185 316.449V316.868L558.502 316.969C556.814 317.077 555.855 317.801 555.855 319.039V319.051C555.855 320.251 556.776 321.108 558.141 321.108ZM557.69 318.956V318.943C557.69 318.461 558.064 318.156 558.782 318.112L560.185 318.023V318.512C560.185 319.223 559.575 319.756 558.744 319.756C558.103 319.756 557.69 319.458 557.69 318.956ZM563.588 321H565.441V317.191C565.441 316.201 565.975 315.655 566.889 315.655C567.155 315.655 567.409 315.693 567.561 315.757V314.125C567.422 314.087 567.231 314.056 567.028 314.056C566.235 314.056 565.683 314.544 565.479 315.382H565.441V314.195H563.588V321ZM569.968 323.241C571.479 323.241 572.393 322.727 572.926 321.121L575.262 314.195H573.307L571.866 319.515H571.815L570.381 314.195H568.343L570.749 321L570.666 321.222C570.501 321.686 570.197 321.844 569.644 321.844C569.371 321.844 569.156 321.806 569.022 321.781V323.158C569.238 323.196 569.606 323.241 569.968 323.241Z" fill="white"/>
<path d="M513.007 349H520.009V347.176H515.219V344.518H519.738V342.789H515.219V340.255H520.009V338.431H513.007V349ZM521.955 349H526.636C528.892 349 530.29 347.843 530.29 345.99V345.975C530.29 344.591 529.228 343.551 527.756 343.441V343.397C528.921 343.243 529.8 342.254 529.8 341.097V341.083C529.8 339.457 528.547 338.431 526.555 338.431H521.955V349ZM525.984 340.072C527.017 340.072 527.624 340.555 527.624 341.397V341.412C527.624 342.328 526.958 342.848 525.713 342.848H524.167V340.072H525.984ZM525.976 344.349C527.331 344.349 528.035 344.869 528.035 345.836V345.851C528.035 346.832 527.339 347.352 526.072 347.352H524.167V344.349H525.976ZM531.9 349H538.902V347.176H534.112V344.518H538.631V342.789H534.112V340.255H538.902V338.431H531.9V349ZM540.849 349H545.529C547.785 349 549.184 347.843 549.184 345.99V345.975C549.184 344.591 548.122 343.551 546.65 343.441V343.397C547.814 343.243 548.693 342.254 548.693 341.097V341.083C548.693 339.457 547.441 338.431 545.448 338.431H540.849V349ZM544.877 340.072C545.91 340.072 546.518 340.555 546.518 341.397V341.412C546.518 342.328 545.851 342.848 544.606 342.848H543.061V340.072H544.877ZM544.87 344.349C546.225 344.349 546.928 344.869 546.928 345.836V345.851C546.928 346.832 546.232 347.352 544.965 347.352H543.061V344.349H544.87ZM550.794 349H553.005V344.84H557.305V343.089H553.005V340.255H557.715V338.431H550.794V349ZM563.302 349.183C565.719 349.183 567.389 347.682 567.389 345.47V345.455C567.389 343.463 565.938 342.02 563.932 342.02C562.862 342.02 561.991 342.452 561.551 343.163H561.507L561.764 340.189H566.751V338.431H560.006L559.522 344.635H561.449C561.573 344.415 561.742 344.21 561.954 344.049C562.313 343.763 562.774 343.602 563.316 343.602C564.459 343.602 565.272 344.386 565.279 345.499V345.514C565.279 346.642 564.466 347.433 563.309 347.433C562.291 347.433 561.551 346.817 561.397 346.019L561.383 345.968H559.339L559.347 346.078C559.479 347.843 561.002 349.183 563.302 349.183Z" fill="white"/>
</g>
</g>
<defs>
<filter id="filter0_d_40_2621" x="-40" y="-20" width="720" height="288" filterUnits="userSpaceOnUse" color-interpolation-filters="sRGB">
<feFlood flood-opacity="0" result="BackgroundImageFix"/>
<feColorMatrix in="SourceAlpha" type="matrix" values="0 0 0 0 0 0 0 0 0 0 0 0 0 0 0 0 0 0 127 0" result="hardAlpha"/>
<feOffset dy="20"/>
<feGaussianBlur stdDeviation="20"/>
<feComposite in2="hardAlpha" operator="out"/>
<feColorMatrix type="matrix" values="0 0 0 0 0.231373 0 0 0 0 0.25098 0 0 0 0 0.337255 0 0 0 0.15 0"/>
<feBlend mode="normal" in2="BackgroundImageFix" result="effect1_dropShadow_40_2621"/>
<feBlend mode="normal" in="SourceGraphic" in2="effect1_dropShadow_40_2621" result="shape"/>
</filter>
<filter id="filter1_d_40_2621" x="-40" y="188" width="720" height="280" filterUnits="userSpaceOnUse" color-interpolation-filters="sRGB">
<feFlood flood-opacity="0" result="BackgroundImageFix"/>
<feColorMatrix in="SourceAlpha" type="matrix" values="0 0 0 0 0 0 0 0 0 0 0 0 0 0 0 0 0 0 127 0" result="hardAlpha"/>
<feOffset dy="20"/>
<feGaussianBlur stdDeviation="20"/>
<feComposite in2="hardAlpha" operator="out"/>
<feColorMatrix type="matrix" values="0 0 0 0 0.231373 0 0 0 0 0.25098 0 0 0 0 0.337255 0 0 0 0.15 0"/>
<feBlend mode="normal" in2="BackgroundImageFix" result="effect1_dropShadow_40_2621"/>
<feBlend mode="normal" in="SourceGraphic" in2="effect1_dropShadow_40_2621" result="shape"/>
</filter>
<clipPath id="clip0_40_2621">
<rect width="640" height="408" rx="44" fill="white"/>
</clipPath>
</defs>
</svg>
